<svg xmlns="http://www.w3.org/2000/svg" viewBox="0 0 360.52 444.1"><defs><style>.cls-1{fill:#e2bcb0;}</style></defs><g id="Capa_2" data-name="Capa 2"><g id="Capa_2-2" data-name="Capa 2"><path class="cls-1" d="M349.49,258.09h0a37.67,37.67,0,0,0-53.27,0l-79.47,79.47V37.67A37.68,37.68,0,0,0,179.08,0h0a37.68,37.68,0,0,0-37.67,37.67V337.56l-77.1-77.11a37.68,37.68,0,0,0-53.28,0h0a37.67,37.67,0,0,0,0,53.27L114.77,417.47a91,91,0,0,0,64.31,26.63h0a91,91,0,0,0,64.31-26.63l106.1-106.11A37.67,37.67,0,0,0,349.49,258.09Z"/></g></g></svg>