<svg id="Capa_1" data-name="Capa 1" xmlns="http://www.w3.org/2000/svg" viewBox="0 0 720 720"><defs><style>.cls-1{fill:#00ff75;}.cls-2{fill:#007433;}.cls-3{fill:#00a74a;}.cls-4{fill:none;stroke:#007433;stroke-miterlimit:10;stroke-width:4.8px;}</style></defs><path class="cls-1" d="M387.83,717.47c-7.78-1.21-58.91-10.17-107.76-43.22C249.17,653.34,225.21,627,208.84,596c-20.48-38.81-29.08-85.18-25.57-137.8,4.84-72.71,24.46-122.83,40.06-152.07,13.54-25.38,26.4-39.74,31-44.46,7.59,9.16,38.94,48.86,40.6,82l.69,13.74,4-13.16C312.66,301.33,272.68,230.75,267,221c5.32-13.57,58.58-148.84,74.73-165,11.52-11.53,31.45-13.25,42.3-13.25,2.51,0,4.57.09,6,.18v58.5l4.43-7c.32-.52,32.2-51.4,44.31-91.71,49.14,9.51,66,94,71.63,122,5.41,27,24.46,129.07,26.91,142.19-10.74,8.95-89.68,75.65-106.33,114.5l-4,9.25,7.72-6.46c49-41.09,89.35-68.24,102.19-76.62a1497.18,1497.18,0,0,1-32.09,168.37c-13.62,53.65-29.28,100.3-46.52,138.64C437,661.78,413.34,696.4,387.83,717.47Z"/><path class="cls-2" d="M440.39,5.54c46,11.2,62.2,92.41,67.64,119.61,5.24,26.22,23.34,123.12,26.64,140.78-14.16,11.88-89.53,76.26-105.92,114.5l-7.93,18.5L436.25,386a1136,1136,0,0,1,97.59-73.57,1503.65,1503.65,0,0,1-31.36,163c-13.6,53.51-29.21,100-46.39,138.22C435.23,660,412,694,387.13,714.93c-10.41-1.72-59.22-11.16-105.86-42.77-30.53-20.69-54.2-46.73-70.36-77.4-20.23-38.4-28.73-84.3-25.25-136.44a426.84,426.84,0,0,1,15.19-89.54,318.6,318.6,0,0,1,24.33-61c12-22.52,23.43-36.38,29-42.46,9.61,11.9,36.82,48.15,38.33,78.47l1.38,27.47,8-26.31c13-42.55-24.78-111.11-32.26-124.08C286.4,178,329.89,71.24,343.4,57.73,354.32,46.82,373.53,45.19,384,45.19c1.34,0,2.55,0,3.6.06v64.53l8.86-14.07c1.31-2.09,31.34-50,43.92-90.17M437,0c-11.64,40.75-44.63,93.15-44.63,93.15V40.75s-3.31-.36-8.4-.36c-11.45,0-31.91,1.86-44,14-17.47,17.47-75.69,166.9-75.69,166.9s46.58,77.63,33,122.26c-1.94-38.81-42.83-85.39-42.83-85.39S190.31,316.44,180.87,458C165.35,690.89,388.53,720,388.53,720,503,626.85,539.9,302.75,539.9,302.75s-46.57,29.11-106.74,79.57c17.47-40.76,106.74-114.5,106.74-114.5s-21.35-114.5-27.17-143.62S489.44,7.76,437,0Z"/><path class="cls-3" d="M388.53,720S266.91,593.21,250.74,551.81c23.29,7.11,54.34,39.46,54.34,39.46s7.76-170.14-31.7-223.18a97.89,97.89,0,0,1,38.81,20.7s22.64-97.68,24.59-146.2-22-96.39-22-96.39,37.52,45.93,40.11,93.15c11-54.34,38.17-93.15,49.16-103.5-13.58,42.69-33.64,177.25-33.64,177.25l45.93-25.88S378.18,348,366.53,383C338.72,474.82,330.31,595.8,388.53,720Z"/><path class="cls-4" d="M388.53,720s-56.93-75-58.87-154.61-1.94-158.49,14.23-199.24l63.4-69.87"/><path class="cls-4" d="M333.54,181.78s35.58,113.85,10.35,184.37"/><path class="cls-4" d="M395,156.55s-43.83,76.1-42.62,129.91"/><path class="cls-4" d="M292.79,396.55s28,39.46,36,81.51"/></svg>