<svg xmlns="http://www.w3.org/2000/svg" viewBox="0 0 261.12 335.98"><defs><style>.cls-1{fill:#635955;}.cls-2{fill:#807570;}.cls-3{fill:#6c302e;}.cls-4{fill:#fff;}.cls-5{fill:#9e8d88;}.cls-6{fill:#2d251b;}</style></defs><g id="Capa_2" data-name="Capa 2"><g id="Capa_1-2" data-name="Capa 1"><path class="cls-1" d="M130,25.13A219.17,219.17,0,0,1,110.22,7.28C100.85-2.43,84.13-5.07,70.65,16.2A67.75,67.75,0,0,0,60.44,58.88l6.44,5.57,66.87-32.23Z"/><path class="cls-1" d="M185.6,28.34s28-24.56,50.62-20.79,28.67,34.38,11.65,61.68-26.24,0-26.24,0l-45.27-32Z"/><path class="cls-2" d="M51.23,67.18S104.63,12.67,158,27.77s146.45,68.46,80.11,181.58S154.34,321.58,130.07,331.29s-80.9,7.55-92.76-37.75,4.76-61.33,5.3-77.54-13-18.77-11.18-52.32S51.23,67.18,51.23,67.18Z"/><path class="cls-3" d="M57.71,147.5s10.88,97,4.94,109.36-4.31,36.68,27,41.53,48.54-19.95,56.63-28,49.28-39.58,62.22-65.46,9.73-33.48-.13-47.86a205.31,205.31,0,0,0-21.19-25.71l-47.62-10.24-82.36,3.77Z"/><path class="cls-4" d="M31.43,129.22s.93,20.44,13.87,23.14,89.53.54,106.25,4.85,28,17.26,32.9,17.26,10.8-15.17,10.8-15.17V148.58l-55.72-19.36L86.29,132.4l-54.86-7.55Z"/><path class="cls-4" d="M89.62,293.54c24.76,4.67,48.54-16.18,64.72-41s18.34-35.6,28.58-32.36-22.65,56.46-46.65,73.53-44.59,21.93-63.69,13.84S46.47,283.83,55.1,243.92s12.31-36.67,17.48-36.67,4,23.19,0,37.21S61,288.14,89.62,293.54Z"/><path class="cls-5" d="M104.35,67.68c45.31,1.62,97.9,13.76,110,40.45s4.86,46.92-11.32,51-22.31-14.7-47.73-19.42c-18.88-3.5-54.21,2.43-83.33-2.42S0,128.36,0,96.81,34,65.26,56.63,67.68,104.35,67.68,104.35,67.68Z"/><circle class="cls-6" cx="83.98" cy="83.64" r="34.52"/><path class="cls-6" d="M190,53.62H144.57a3.51,3.51,0,0,0-3.24,2.16l-.45,1.08a3.51,3.51,0,0,0,1.88,4.59l40.8,17.06a3.51,3.51,0,0,0,4.59-1.88h0A3.52,3.52,0,0,0,186.27,72L159,60.64h31a3.51,3.51,0,0,0,3.51-3.51h0A3.51,3.51,0,0,0,190,53.62Z"/></g></g></svg>