<svg xmlns="http://www.w3.org/2000/svg" viewBox="0 0 651.17 441.7"><defs><style>.cls-1{fill:#635955;}.cls-2{fill:#807570;}.cls-3{fill:#6c302e;}.cls-4{fill:#fff;}.cls-5{fill:#9e8d88;}.cls-6{fill:#2d251b;}.cls-7{fill:#af8782;stroke:#af8782;stroke-miterlimit:10;stroke-width:8px;}</style></defs><g id="Capa_2" data-name="Capa 2"><g id="Capa_1-2" data-name="Capa 1"><path class="cls-1" d="M324.92,25.13A217.63,217.63,0,0,1,305.16,7.28c-9.37-9.71-26.09-12.35-39.57,8.92a67.79,67.79,0,0,0-10.22,42.68l6.44,5.57,66.88-32.23Z"/><path class="cls-1" d="M380.54,28.34s28-24.56,50.62-20.79,28.67,34.38,11.65,61.68-26.24,0-26.24,0l-45.28-32Z"/><path class="cls-2" d="M246.17,67.18S299.57,12.67,353,27.77s146.45,68.46,80.11,181.58S349.28,321.58,325,331.29s-80.9,7.55-92.77-37.75,4.76-61.33,5.3-77.54-12.95-18.77-11.18-52.32S246.17,67.18,246.17,67.18Z"/><path class="cls-3" d="M252.65,147.5s10.87,97,4.94,109.36-4.31,36.68,27,41.53,48.54-19.95,56.63-28,49.28-39.58,62.22-65.46,9.73-33.48-.14-47.86a204.31,204.31,0,0,0-21.19-25.71l-47.61-10.24-82.36,3.77Z"/><path class="cls-4" d="M226.36,129.22s.94,20.44,13.88,23.14,89.53.54,106.25,4.85,28,17.26,32.9,17.26,10.8-15.17,10.8-15.17V148.58l-55.72-19.36-53.24,3.18-54.87-7.55Z"/><path class="cls-4" d="M284.56,293.54c24.76,4.67,48.54-16.18,64.72-41s18.33-35.6,28.58-32.36-22.65,56.46-46.65,73.53-44.59,21.93-63.69,13.84S241.41,283.83,250,243.92s12.31-36.67,17.48-36.67,4,23.19,0,37.21S256,288.14,284.56,293.54Z"/><path class="cls-5" d="M299.29,67.68c45.31,1.62,97.9,13.76,110,40.45s4.85,46.92-11.33,51-22.31-14.7-47.73-19.42c-18.87-3.5-54.2,2.43-83.32-2.42s-72-8.9-72-40.45,34-31.55,56.63-29.13S299.29,67.68,299.29,67.68Z"/><circle class="cls-6" cx="278.92" cy="83.64" r="34.52"/><path class="cls-6" d="M384.9,53.62H339.5a3.51,3.51,0,0,0-3.23,2.16l-.45,1.08a3.51,3.51,0,0,0,1.88,4.59l40.8,17.06a3.51,3.51,0,0,0,4.59-1.88h0A3.52,3.52,0,0,0,381.2,72l-27.27-11.4h31a3.51,3.51,0,0,0,3.51-3.51h0A3.51,3.51,0,0,0,384.9,53.62Z"/><path class="cls-7" d="M4,214.77q14.75.1,29.5.81c17.79,47.34,30.11,96.13,41.64,145.31,3-46.79,7.89-93.31,15.07-139.65,8.66,1.44,12.68,2.25,20.2,4A1503.21,1503.21,0,0,0,88.5,427c-5.9-.12-8.87-.18-14.89-.28-13.57-45.56-26-91.33-42-136.14-.39,45.38,1,90.6,6.1,135.72-6.56,0-9.87-.06-16.58-.07C7.64,356.62,3.87,285.58,4,214.77Z"/><path class="cls-7" d="M165.44,243c10.6,8.42,11.59,28.18,13.28,41,3,23.1,5.19,47.31,4.48,70.6-.56,18.73-2.44,39.55-10.57,56.67-5,10.62-14.64,21.3-27.35,21.07-15.63-.28-22.39-14.93-26.93-26.92-8.39-22.12-7.61-48.93-4.78-72.64,2.11-17.61,5.93-36.25,13.12-52.73,5.16-11.85,10.94-23.87,20.63-32.88C154.37,240.67,161,239.46,165.44,243Zm-5.68,34.55c-4.88-3-11.29,1-17.6,12.13-8.1,14.24-11.24,30.94-13.52,46.86-2.39,16.67-2.56,35.58,3.66,51.56,3.77,9.67,8.79,14.41,14.58,15.06,6.56.73,12.42-4,17.07-14,5.8-12.56,7.07-26.39,8-40a195.6,195.6,0,0,0-1.85-46C168.8,295.38,167.29,282.21,159.76,277.58Z"/><path class="cls-7" d="M218.88,343a31.28,31.28,0,0,0-5.3,6.05c-3.35-11.67-5.71-19.77-7.87-23.28-1.05-1.71-1.87-2.19-2.5-1.38s-.93,2.47-.87,4.88a42.39,42.39,0,0,0,1,7.87,173.7,173.7,0,0,0,8,25.39A220.59,220.59,0,0,0,220.47,383c3,6.23,5.55,11.37,7.39,15.75a86.3,86.3,0,0,1,4.31,12.82c2,8.15,1.74,13.53-1,17.65s-7.62,6.16-14.31,5.82a20.58,20.58,0,0,1-14.34-6.52c-4.23-4.4-8-11.65-10.94-22.89,4.16-4.19,6.14-6.12,9.85-9.64,3.84,13.32,8.31,19.16,12.55,20.24a4.3,4.3,0,0,0,5-1.67c1.13-1.66,1.43-3.8,1-6.6a35.63,35.63,0,0,0-2.85-8.53c-1.45-3.19-4.35-8.46-8.25-16.79a163.8,163.8,0,0,1-12.89-39.06,120.15,120.15,0,0,1-2.2-25.26c.24-10.92,1.88-18.48,4.16-21.74s4.47-1.1,7.17,5.26c1.74,4.1,3.48,9.45,5.49,15.74S215.16,332.52,218.88,343Z"/><path class="cls-7" d="M231,345.2c14,11.61,25.95,16.58,43.38,21.55,1.37,5.43,2.09,8.37,3.61,14.32a145.37,145.37,0,0,1-17.24-4.53c5.72,19.91,10.73,42.11,21.71,60-5.78-.17-8.24,0-14.12-.33-10-19.47-14.15-42.38-19-63.47a85.49,85.49,0,0,1-14.72-9.49C233.07,355.81,232.33,352.13,231,345.2Z"/><path class="cls-7" d="M330.36,360.19c11.61-.4,24.4.08,35.47,3.33,11.35,3.33,14,18.12,14.21,28.37.24,12.58-2.19,26.73-11,36.53-6.27,7-18.8,9.42-27.37,9.28-9.2-.15-21.56-2.17-30.09-6.41-8.71-4.34-17.48-15-19.78-24.48-1.72-7.16-1.29-14,2.36-20s10.13-10.64,17.09-17.68S322,360.49,330.36,360.19ZM332,375.05c-8.18.31-13.52,3.5-16.7,10.08s-6.53,14.27-5.21,21.82c1.47,8.42,6.41,13.47,12.83,17.16a32.9,32.9,0,0,0,17,4.25c7.08-.07,13-2,17.86-7.29s7.18-12.86,6.7-21.37-3.63-14.56-10-18.79A38,38,0,0,0,332,375.05Z"/><path class="cls-7" d="M392.62,322.72c5.78-7.31,8.42-11,12.77-17.06,5.94-8.33,8.36-10.45,9.88-9.15a18.27,18.27,0,0,1,6.33,8.84c2.13,5.67,3.95,13.64,5.21,23.54,1.31,10.4,1.56,19.67.56,27.45s-3.3,14.24-6.5,18.75q8.7,28.52,20.22,56.07c-6.07.29-9.16.56-15.12.75-6.2-15.91-11.31-32.27-16.8-48.44l-1.15.61c.42,16.27.78,32.52.36,48.79-5.59.4-8.41.63-14.08,1.11C395.82,397,393.74,359.73,392.62,322.72Zm14.52,36.48c1.51-1.16,2.24-1.72,3.65-2.76,3.59-2.65,5.63-5.12,6.56-8.18s1.08-7.29.6-12.79a36.05,36.05,0,0,0-1.44-7.94c-.66-2-1.43-3.15-2.35-3.36s-2.52.86-5.27,3.79l-3,3.17Q406.57,345.17,407.14,359.2Z"/><path class="cls-7" d="M454.49,430.53c-6.08-53.06-14.79-105.86-24.22-158.42,2.71-3.05,4.12-4.53,7.06-7.39,4.26-4.14,7.95-5.87,10.62-5.56,3.73.43,7.77,3.89,11.75,10.65,4.7,8,8,18.2,9.86,27.11a120.66,120.66,0,0,1,2.76,20.46,71.32,71.32,0,0,1-1.71,18.34c5.06,3.92,9.52,9.82,13.14,17.3a111.39,111.39,0,0,1,8.57,27.27c1.86,10,2.55,19.09,1.77,26.9s-2.67,13.31-5.52,16.9-7.36,5.34-13.36,5.58C466.87,430,462.73,430.17,454.49,430.53Zm-9.22-135.89q3.68,18.64,7.1,37.35c1-.47,1.48-.71,2.48-1.17,2.78-1.29,4.56-4,5.22-8.15s.35-9.42-.95-15.62c-1.2-5.78-2.81-10-4.75-12.66s-4.1-3.14-6.47-1.55C446.84,293.55,446.31,293.91,445.27,294.64Zm12.41,67.06c2.4,14,4.75,28,6.95,42l3.34-.49c5.57-.82,9.13-2.89,10.51-6.48s1.46-8.62.24-15.22C477.33,374,475,368.19,472,364.33s-7-5-11.8-3.46Z"/><path class="cls-7" d="M470.78,241.32c14.38-6.91,29.3-11.32,44.73-15.15q4.57,19.32,8.81,38.72a312.64,312.64,0,0,0-30.74,7.59q4.37,18.36,8.44,36.78c10-2.51,20.17-4.28,30.35-6q3.87,19.17,7.41,38.42c-10,1.15-20,2.62-29.86,4.44,3.41,16.67,6.73,33.35,9.81,50.09q14.44-1.32,28.94-2.19,2.51,16.71,4.72,33.44-21.35.42-42.68,1C500,365.57,486.27,303.18,470.78,241.32Z"/><path class="cls-7" d="M533.94,222.58c8-1.34,12.23-1.93,21.2-3,26.24,44.82,49.06,91.16,66.61,140.08-.2-48.2-2.88-96.25-6.71-144.28,10.6-.37,21.19-.49,31.79-.6.91,70.67.82,142.07-11.23,211.92-6.48,0-9.68,0-16,0-10.29-46.38-30.18-90.41-50.88-132.92C575.26,338,580.82,382.35,583.37,427c-6.31.07-9.43.11-15.62.2C560.81,358.38,548.4,290.19,533.94,222.58Z"/></g></g></svg>